<svg width="36" height="37" viewBox="0 0 36 37" fill="none" xmlns="http://www.w3.org/2000/svg">
<path d="M34.4299 12.0401L15.5698 1.15127C14.0812 0.291802 12.1794 0.801382 11.3199 2.29003L0.43102 21.1502C-0.428412 22.6387 0.081167 24.5405 1.56981 25.4L20.4299 36.2889C21.9185 37.1483 23.8203 36.6387 24.6798 35.1501L35.5686 16.29C36.4281 14.8014 35.9185 12.8996 34.4299 12.0401ZM7.271 23.303C6.15284 22.6574 5.77137 21.2337 6.41694 20.1156C7.06251 18.9974 8.48618 18.6159 9.60433 19.2615C10.7225 19.9071 11.104 21.3307 10.4584 22.4489C9.81282 23.5671 8.38916 23.9485 7.271 23.303ZM14.271 11.1786C13.1528 10.533 12.7714 9.10937 13.4169 7.99121C14.0625 6.87306 15.4862 6.49159 16.6043 7.13715C17.7225 7.78272 18.104 9.20639 17.4584 10.3245C16.8128 11.4427 15.3892 11.8242 14.271 11.1786ZM16.8332 20.7408C15.715 20.0952 15.3335 18.6715 15.9791 17.5534C16.6247 16.4352 18.0484 16.0538 19.1665 16.6993C20.2847 17.3449 20.6661 18.7686 20.0206 19.8867C19.375 21.0049 17.9513 21.3864 16.8332 20.7408ZM19.3954 30.303C18.2772 29.6574 17.8957 28.2337 18.5413 27.1156C19.1869 25.9974 20.6105 25.6159 21.7287 26.2615C22.8468 26.9071 23.2283 28.3307 22.5827 29.4489C21.9372 30.5671 20.5135 30.9485 19.3954 30.303ZM26.3954 18.1786C25.2772 17.533 24.8957 16.1094 25.5413 14.9912C26.1869 13.8731 27.6105 13.4916 28.7287 14.1372C29.8468 14.7827 30.2283 16.2064 29.5827 17.3245C28.9372 18.4427 27.5135 18.8242 26.3954 18.1786Z" fill="url(#paint0_linear_866_10741)"/>
<defs>
<linearGradient id="paint0_linear_866_10741" x1="13.5212" y1="-0.0315147" x2="37.4463" y2="16.8785" gradientUnits="userSpaceOnUse">
<stop stop-color="#FF9900"/>
<stop offset="1" stop-color="#FF6716"/>
</linearGradient>
</defs>
</svg>
