<svg width="54" height="53" viewBox="0 0 54 53" fill="none" xmlns="http://www.w3.org/2000/svg">
<g clip-path="url(#clip0_450_12294)">
<path d="M26.7969 52.5748C41.2955 52.5748 53.0489 40.8213 53.0489 26.3228C53.0489 11.8242 41.2955 0.0708008 26.7969 0.0708008C12.2983 0.0708008 0.544922 11.8242 0.544922 26.3228C0.544922 40.8213 12.2983 52.5748 26.7969 52.5748Z" fill="url(#paint0_linear_450_12294)"/>
<path fill-rule="evenodd" clip-rule="evenodd" d="M12.4267 26.0457C20.0797 22.7114 25.1829 20.5132 27.7362 19.4512C35.0267 16.4189 36.5416 15.8921 37.5289 15.8747C37.7461 15.8709 38.2317 15.9247 38.5462 16.18C39.0128 16.5586 39.0154 17.3804 38.9636 17.9243C38.5685 22.0754 36.8591 32.1489 35.9894 36.7981C35.6213 38.7654 34.8967 39.4251 34.1953 39.4896C32.6709 39.6299 31.5132 38.4821 30.0366 37.5142C27.7262 35.9996 26.4208 35.0568 24.1781 33.5789C21.5862 31.8709 23.2664 30.9322 24.7435 29.398C25.1301 28.9965 31.847 22.8868 31.977 22.3326C31.9933 22.2633 32.0084 22.0048 31.8549 21.8685C31.7014 21.7321 31.4749 21.7786 31.3114 21.8157C31.0796 21.8683 27.3886 24.308 20.2382 29.1347C19.1905 29.8542 18.2415 30.2047 17.3913 30.1863C16.4539 30.1661 14.6509 29.6564 13.3106 29.2206C11.6665 28.6863 10.3599 28.4037 10.4737 27.4961C10.533 27.0233 11.1839 26.5399 12.4267 26.0457Z" fill="white"/>
</g>
<defs>
<linearGradient id="paint0_linear_450_12294" x1="26.7969" y1="0.0708008" x2="26.7969" y2="52.1646" gradientUnits="userSpaceOnUse">
<stop stop-color="#2AABEE"/>
<stop offset="1" stop-color="#229ED9"/>
</linearGradient>
<clipPath id="clip0_450_12294">
<rect width="52.504" height="52.504" fill="white" transform="translate(0.546875 0.0708008)"/>
</clipPath>
</defs>
</svg>
