<svg width="45" height="45" viewBox="0 0 45 45" fill="none" xmlns="http://www.w3.org/2000/svg">
<circle cx="22.3357" cy="22.692" r="21.8073" fill="url(#paint0_linear_204_7176)"/>
<path d="M22.3017 12.5781C23.8937 12.5781 25.4796 12.9705 26.8887 13.7128C31.6864 16.242 33.5314 22.1994 31.0017 26.9945C29.2763 30.2642 25.8791 32.2425 22.2904 32.2425C21.5893 32.2425 20.8813 32.1672 20.1767 32.0113C19.7798 31.9229 19.5294 31.5297 19.6169 31.133C19.7044 30.7363 20.097 30.4877 20.4965 30.5735C24.1615 31.3876 27.9451 29.6302 29.6983 26.3076C31.8493 22.2315 30.2807 17.1653 26.2015 15.0155C25.0038 14.3841 23.6554 14.0506 22.3008 14.0506C17.68 14.0506 13.9275 17.8002 13.9275 22.409C13.9258 23.7516 14.2533 25.0881 14.8747 26.2756L15.0636 26.6446C15.295 27.0776 15.3462 27.6155 15.1962 28.1023C14.9891 28.648 14.8167 29.1789 14.6745 29.7073C15.2274 29.541 15.9025 29.2959 16.3904 29.1183L16.5906 29.0464C16.9693 28.9052 17.3949 29.1053 17.5335 29.4882C17.6722 29.8701 17.4737 30.2928 17.0915 30.4305L16.894 30.5024C16.1643 30.7666 15.1659 31.1295 14.4917 31.2802C14.4345 31.2924 14.3729 31.3002 14.3166 31.2984C13.8642 31.2984 13.5886 31.1157 13.437 30.9615C13.2039 30.725 13.0929 30.3933 13.1059 29.9758C13.1077 29.9282 13.1137 29.8788 13.125 29.8312C13.3001 29.0863 13.528 28.3431 13.8036 27.6233C13.8235 27.5532 13.8114 27.4258 13.755 27.3193L13.5652 26.9512C12.8381 25.5601 12.4525 23.9863 12.4542 22.4082C12.4542 16.9877 16.8671 12.5781 22.2904 12.5781H22.3017ZM22.2908 21.2398C22.9364 21.2398 23.4607 21.7647 23.4607 22.4091C23.4607 23.0535 22.9364 23.5784 22.2908 23.5784C21.6451 23.5784 21.1208 23.0535 21.1208 22.4091C21.1208 21.7647 21.6451 21.2398 22.2908 21.2398ZM26.6239 21.2398C27.2695 21.2398 27.7938 21.7647 27.7938 22.4091C27.7938 23.0535 27.2695 23.5784 26.6239 23.5784C25.9783 23.5784 25.4539 23.0535 25.4539 22.4091C25.4539 21.7647 25.9783 21.2398 26.6239 21.2398ZM17.9576 21.2402C18.6032 21.2402 19.1275 21.7642 19.1275 22.4095C19.1275 23.0539 18.6032 23.5779 17.9576 23.5779C17.3119 23.5779 16.7876 23.0539 16.7876 22.4095C16.7876 21.7642 17.3119 21.2402 17.9576 21.2402Z" fill="white"/>
<defs>
<linearGradient id="paint0_linear_204_7176" x1="48.7225" y1="22.2644" x2="-0.0946676" y2="23.729" gradientUnits="userSpaceOnUse">
<stop stop-color="#FF6316"/>
<stop offset="1" stop-color="#FF8F16"/>
</linearGradient>
</defs>
</svg>
