<svg width="53" height="53" viewBox="0 0 53 53" fill="none" xmlns="http://www.w3.org/2000/svg">
<rect x="0.0380859" y="0.0708008" width="52.504" height="52.504" rx="26.252" fill="#FA455E"/>
<g clip-path="url(#clip0_450_12289)">
<path d="M11.2959 26.3229C11.2959 18.0513 18.0254 11.3218 26.297 11.3218C29.6377 11.3218 32.7997 12.3966 35.4411 14.43L31.9552 18.9584C30.3219 17.7011 28.3653 17.0365 26.297 17.0365C21.1765 17.0365 17.0106 21.2024 17.0106 26.3229C17.0106 31.4434 21.1765 35.6093 26.297 35.6093C30.4212 35.6093 33.9259 32.9073 35.1337 29.1803H26.297V23.4655H41.2982V26.3229C41.2982 34.5945 34.5686 41.324 26.297 41.324C18.0254 41.324 11.2959 34.5945 11.2959 26.3229Z" fill="white"/>
</g>
<defs>
<clipPath id="clip0_450_12289">
<rect width="30.0023" height="30.0023" fill="white" transform="translate(11.291 11.3218)"/>
</clipPath>
</defs>
</svg>
