<?xml version="1.0" standalone="no"?>
<!DOCTYPE svg PUBLIC "-//W3C//DTD SVG 20010904//EN"
 "http://www.w3.org/TR/2001/REC-SVG-20010904/DTD/svg10.dtd">
<svg version="1.0" xmlns="http://www.w3.org/2000/svg"
 width="242.000000pt" height="242.000000pt" viewBox="0 0 242.000000 242.000000"
 preserveAspectRatio="xMidYMid meet">
<metadata>
Created by potrace 1.14, written by Peter Selinger 2001-2017
</metadata>
<g transform="translate(0.000000,242.000000) scale(0.100000,-0.100000)"
fill="#000000" stroke="none">
<path d="M355 1544 l-329 -333 336 -336 336 -336 76 75 c42 41 76 80 76 86 0
6 -34 44 -75 85 -41 41 -75 79 -75 85 0 5 77 87 171 181 l171 171 336 -336
c186 -185 340 -338 343 -341 3 -3 157 146 342 331 l337 336 -335 334 c-184
184 -337 334 -340 334 -7 0 -155 -149 -155 -156 0 -2 36 -40 80 -85 70 -70 79
-83 68 -97 -28 -38 -324 -332 -333 -332 -6 0 -79 69 -163 153 -378 379 -518
517 -527 515 -6 0 -158 -151 -340 -334z"/>
<path d="M1350 1770 c0 -5 -4 -10 -9 -10 -13 0 -157 -144 -171 -170 -25 -47
-10 -78 91 -179 77 -76 103 -96 124 -96 15 1 31 8 36 16 5 8 9 10 9 5 0 -21
179 169 185 196 9 38 -8 62 -111 165 -73 73 -88 83 -119 83 -19 0 -35 -4 -35
-10z m68 -67 c28 -26 2 -85 -35 -78 -10 2 -21 4 -25 4 -4 1 -12 10 -18 21 -8
15 -7 26 6 45 18 27 48 30 72 8z m-116 -113 c6 0 8 -3 5 -7 -4 -3 -2 -12 3
-18 7 -9 7 -21 -1 -39 -14 -31 -46 -34 -77 -8 -16 14 -18 22 -10 37 15 28 40
46 56 40 8 -3 19 -5 24 -5z m121 -10 c18 -25 10 -69 -12 -72 -54 -5 -73 10
-66 51 8 43 54 56 78 21z m113 12 c32 -22 8 -92 -29 -86 -61 9 -63 94 -2 94
11 0 25 -4 31 -8z m-108 -126 c10 -10 9 -51 -1 -65 -13 -17 -52 -20 -67 -5
-17 17 -17 59 -1 71 13 11 58 9 69 -1z"/>
<path d="M915 1003 c-90 -91 -123 -137 -105 -148 6 -4 8 -11 5 -16 -3 -5 39
-54 94 -110 91 -92 103 -100 133 -98 20 2 44 14 60 30 14 15 29 25 32 21 3 -3
6 -1 6 5 0 6 27 37 60 69 61 59 82 105 63 138 -5 9 -48 57 -96 106 -81 83 -91
90 -126 90 -35 0 -47 -8 -126 -87z m157 5 c15 -28 11 -50 -10 -63 -24 -14 -35
-13 -54 3 -21 17 -23 53 -6 70 20 20 56 14 70 -10z m128 -118 c13 -25 2 -53
-26 -67 -21 -10 -27 -8 -45 10 -25 27 -21 58 10 73 28 14 48 9 61 -16z m-247
6 c12 -10 16 -22 13 -41 -6 -34 -8 -35 -42 -38 -21 -1 -31 5 -43 25 -15 25
-14 28 8 47 28 24 39 25 64 7z m117 1 c21 -17 19 -56 -4 -73 -25 -18 -29 -18
-54 5 -26 22 -28 38 -5 63 19 21 41 23 63 5z m6 -118 c19 -16 18 -54 -2 -70
-20 -17 -44 -20 -44 -6 0 5 -3 7 -7 4 -3 -4 -12 2 -20 12 -29 42 33 93 73 60z"/>
</g>
</svg>
